<?xml version="1.0" encoding="utf-8"?>
<!-- Svg Vector Icons : http://www.onlinewebfonts.com/icon -->
<!DOCTYPE svg PUBLIC "-//W3C//DTD SVG 1.1//EN" "http://www.w3.org/Graphics/SVG/1.1/DTD/svg11.dtd">
<svg version="1.1" xmlns="http://www.w3.org/2000/svg" xmlns:xlink="http://www.w3.org/1999/xlink" x="0px" y="0px" viewBox="0 0 1000 1000" enable-background="new 0 0 1000 1000" xml:space="preserve">
<metadata> Svg Vector Icons : http://www.onlinewebfonts.com/icon </metadata>
<g><path d="M495.2,64.1c59.7,59.8,373.7,375,440.6,442.2c-0.8,8.6-2.7,12.3-3.3,13.4c-0.6,0.9-0.9,1.6-4.7,1.6h-61.8h-53.5l-0.2,53.5l-1.2,328.2c-1.3,3.9-4.2,11.2-9.1,18.4c-11.1,16.4-22.6,18.6-31.3,18.6H649.7c0.2-206.1,0.2-289.2,0-296c-0.4-15.2-9-42.8-31.1-56.2l-12.9-7.8l-15,0l-181.4,0.2l-13.9,0l-12.2,6.8c-16.4,9.1-32.8,30.4-32.8,57.5v295.4H227.9l-1.6-0.1l-2.5,0.2l-1.3,0c-30.5,0-30.5-23-30.5-34l0-328.9v-53.7h-53.7h-61c-1.2-0.8-3.3-2.4-5.4-5.1c-3.4-4.2-5.8-9.3-7.1-14.9L495.2,64.1 M494.2,6.3c-11.4,0-20.6,3.3-27.3,10L10,482.5v11.6c0,21.4,7.2,41.9,20.2,58c12.7,15.6,29.2,25,44.2,25h64V906c0,64.7,45.4,87.7,84.2,87.7c2.5,0,4.5-0.1,5.4-0.2H404V644.4c0-5.9,4.6-10.2,5.3-10.6l181.4-0.2c1.9,1.1,5.2,8.4,5.3,11.7c0.3,10,0.1,247.2,0,319.6l0,28.7h174.9c30.9,0,57.1-14.6,75.7-42.2c12.1-17.9,16.8-35.3,17.6-38.6l0.6-2.5l1.2-335.3h61.8c21.9,0,39.8-9.7,50.5-27.4c7.8-12.9,11.6-29.7,11.6-51.3v-11.7l-8.3-8.3C938.7,433.1,525,17.9,523.3,16.3C516.6,9.7,506.8,6.3,494.2,6.3L494.2,6.3z"/></g>
</svg>