<?xml version="1.0"?>
<svg xmlns="http://www.w3.org/2000/svg" id="Layer_3" enable-background="new 0 0 64 64" height="512px" viewBox="0 0 64 64" width="512px"><g><path d="m34 37c-1.654 0-3 1.346-3 3v12c0 1.609 1.276 2.916 2.869 2.987l2.247-17.976c-.038-.002-.079-.011-.116-.011z" data-original="#000000" class="active-path" data-old_color="#000000" fill="#E6570F"/><path d="m11 52v-12c0-1.654-1.346-3-3-3h-2c-.037 0-.078.009-.116.011l2.247 17.976c1.593-.071 2.869-1.378 2.869-2.987z" data-original="#000000" class="active-path" data-old_color="#000000" fill="#E6570F"/><path d="m20 55h2c1.654 0 3-1.346 3-3v-12c0-1.654-1.346-3-3-3h-2c-1.654 0-3 1.346-3 3v12c0 1.654 1.346 3 3 3z" data-original="#000000" class="active-path" data-old_color="#000000" fill="#E6570F"/><path d="m5.637 35.031c.121-.01.243-.031.363-.031h2c2.757 0 5 2.243 5 5v12c0 2.627-2.044 4.764-4.622 4.962l.176 1.41c.188 1.498 1.467 2.628 2.977 2.628h18.938c1.51 0 2.789-1.13 2.977-2.628l.176-1.41c-2.578-.198-4.622-2.335-4.622-4.962v-12c0-2.757 2.243-5 5-5h2c.12 0 .242.021.363.031l.504-4.031h-31.734zm9.363 4.969c0-2.757 2.243-5 5-5h2c2.757 0 5 2.243 5 5v12c0 2.757-2.243 5-5 5h-2c-2.757 0-5-2.243-5-5z" data-original="#000000" class="active-path" data-old_color="#000000" fill="#E6570F"/><path d="m25 23h13c1.654 0 3 1.346 3 3v2c0 1.338-.886 2.461-2.098 2.846l-.269 2.154h19.367c1.654 0 3-1.346 3-3v-19h-36zm32 6h2v2h-2zm-4 0h2v2h-2zm-4 0h2v2h-2z" data-original="#000000" class="active-path" data-old_color="#000000" fill="#E6570F"/><path d="m39 28v-2c0-.552-.448-1-1-1h-34c-.552 0-1 .448-1 1v2c0 .552.448 1 1 1h34c.552 0 1-.448 1-1z" data-original="#000000" class="active-path" data-old_color="#000000" fill="#E6570F"/><path d="m58 3h-8c-.939 0-1.836.448-2.4 1.2l-2.1 2.8h-17.5c-1.302 0-2.402.839-2.816 2h35.816v-3c0-1.654-1.346-3-3-3zm-7 4h-2v-2h2zm4 0h-2v-2h2zm4 0h-2v-2h2z" data-original="#000000" class="active-path" data-old_color="#000000" fill="#E6570F"/><path d="m10 14c0-1.654 1.346-3 3-3h4.586l-2.293 2.293 1.414 1.414 4.707-4.707-4.707-4.707-1.414 1.414 2.293 2.293h-4.586c-2.757 0-5 2.243-5 5v3h2z" data-original="#000000" class="active-path" data-old_color="#000000" fill="#E6570F"/><path d="m8 19h2v2h-2z" data-original="#000000" class="active-path" data-old_color="#000000" fill="#E6570F"/><path d="m51 44c0 1.654-1.346 3-3 3h-4.586l2.293-2.293-1.414-1.414-4.707 4.707 4.707 4.707 1.414-1.414-2.293-2.293h4.586c2.757 0 5-2.243 5-5v-3h-2z" data-original="#000000" class="active-path" data-old_color="#000000" fill="#E6570F"/><path d="m51 37h2v2h-2z" data-original="#000000" class="active-path" data-old_color="#000000" fill="#E6570F"/></g> </svg>
