<?xml version="1.0"?>
<svg xmlns="http://www.w3.org/2000/svg" height="512px" viewBox="-64 0 464 464" width="512px" class=""><g><path d="m168 0v464s168-203.199219 168-296c0-92.785156-75.214844-168-168-168zm0 0" fill="#ff4764" data-original="#FF4764" class="" data-old_color="#ff4764" style="fill:#0C1152"/><path d="m0 168c0 92.800781 168 296 168 296v-464c-92.785156 0-168 75.214844-168 168zm0 0" fill="#ff3051" data-original="#FF3051" class="" data-old_color="#ff3051" style="fill:#0C1152"/><path d="m168 40v256c70.691406 0 128-57.308594 128-128s-57.308594-128-128-128zm0 0" fill="#f4f5f5" data-original="#F4F5F5" class=""/><path d="m40 168c.09375 70.652344 57.347656 127.90625 128 128v-256c-70.652344.09375-127.90625 57.347656-128 128zm0 0" fill="#d3d4d4" data-original="#D3D4D4" class=""/><path d="m72 160h32v80h47.601562l.398438-56h16v-104zm0 0" fill="#2488ff" data-original="#2488FF" class="active-path" data-old_color="#2488ff" style="fill:#F7620A"/><path d="m168 80v104h16v56h48v-80h32zm0 0" fill="#3c95ff" data-original="#3C95FF" class="" data-old_color="#3c95ff" style="fill:#F7620A"/></g> </svg>
